<?xml version="1.0" encoding="UTF-8"?><svg id="_レイヤー_1" xmlns="http://www.w3.org/2000/svg" viewBox="0 0 1628.35 256"><defs><style>.cls-1{fill:#fff;}</style></defs><polygon class="cls-1" points="126.14 21.21 53.68 21.21 53.68 78.42 126.14 78.42 126.14 230.98 183.35 230.98 183.35 78.42 263.44 78.42 263.44 21.21 183.35 21.21 126.14 21.21"/><polygon class="cls-1" points="769.94 54.79 729.49 14.33 656.27 87.55 583.06 14.33 542.61 54.79 615.82 128 542.61 201.21 583.06 241.67 656.27 168.45 729.49 241.67 769.94 201.21 696.73 128 769.94 54.79"/><path class="cls-1" d="m454.14,21.21h-160.18v209.76h217.39V21.21h-57.21Zm-102.98,152.56v-95.35h102.98v95.35h-102.98Z"/><path class="cls-1" d="m1041.48,78.42V21.21h-183.07v209.76h209.76V97.49h-26.7v-19.07Zm-125.86,0h68.65v19.07h-68.65v-19.07Zm95.35,95.35h-95.35v-19.07h95.35v19.07Z"/><polygon class="cls-1" points="1534.22 14.33 1461.01 87.55 1387.8 14.33 1347.34 54.79 1420.56 128 1347.34 201.21 1387.8 241.67 1461.01 168.45 1534.22 241.67 1574.68 201.21 1501.46 128 1574.68 54.79 1534.22 14.33"/><path class="cls-1" d="m1258.87,21.21h-160.18v209.76h217.39V21.21h-57.21Zm-102.98,152.56v-95.35h102.98v95.35h-102.98Z"/></svg>