<?xml version="1.0" encoding="UTF-8"?><svg id="_レイヤー_3" xmlns="http://www.w3.org/2000/svg" viewBox="0 0 256 256"><defs><style>.cls-1{fill:#19d8aa;}</style></defs><rect class="cls-1" x="49.1" y="170" width="25" height="5"/><rect class="cls-1" x="112.1" y="150" width="27" height="25"/><rect class="cls-1" x="49.1" y="150" width="18" height="5"/><rect class="cls-1" x="112.1" y="80" width="27" height="25"/><path class="cls-1" d="m0,0v256h256V0H0Zm89.1,160.5v29.5h-55v-55h48v20h7v5.5Zm0-80.5h-21v40h-15v-40h-19v-15h55v15Zm65,110h-57v-55h57v55Zm0-70h-57v-55h57v55Zm67.8,62.2l-10.61,10.61-19.2-19.2-19.2,19.2-10.61-10.61,19.2-19.2-19.2-19.2,10.61-10.61,19.2,19.2,19.2-19.2,10.61,10.61-19.2,19.2,19.2,19.2Zm0-70l-10.61,10.61-19.2-19.2-19.2,19.2-10.61-10.61,19.2-19.2-19.2-19.2,10.61-10.61,19.2,19.2,19.2-19.2,10.61,10.61-19.2,19.2,19.2,19.2Z"/></svg>